<?xml version="1.0" standalone="no"?>
<!DOCTYPE svg PUBLIC "-//W3C//DTD SVG 20010904//EN"
 "http://www.w3.org/TR/2001/REC-SVG-20010904/DTD/svg10.dtd">
<svg version="1.0" xmlns="http://www.w3.org/2000/svg"
 width="512.000000pt" height="512.000000pt" viewBox="0 0 512.000000 512.000000"
 preserveAspectRatio="xMidYMid meet">

<g transform="translate(0.000000,512.000000) scale(0.100000,-0.100000)"
fill="#000000" stroke="none">
<path d="M3209 5110 c-22 -13 -2222 -3013 -2232 -3045 -11 -32 10 -75 45 -94
25 -14 66 -8 587 89 308 57 562 102 565 99 2 -2 -68 -461 -155 -1019 -87 -558
-159 -1031 -159 -1051 0 -54 28 -84 79 -84 23 0 47 7 56 16 37 37 2144 2926
2150 2947 8 31 -14 73 -46 91 -25 14 -62 7 -545 -102 -285 -64 -520 -114 -523
-112 -2 3 65 490 149 1082 84 593 152 1094 152 1113 -2 60 -72 100 -123 70z
m-96 -432 c-16 -96 -273 -1936 -273 -1958 0 -28 47 -80 73 -80 7 0 219 47 472
104 253 57 462 102 463 101 2 -2 -393 -546 -879 -1209 -485 -664 -883 -1205
-885 -1204 -1 2 62 416 141 921 156 995 153 962 94 993 -27 14 -62 8 -541 -81
-281 -52 -513 -94 -515 -92 -3 3 1846 2527 1851 2527 2 0 1 -10 -1 -22z"/>
</g>
</svg>
